<svg xmlns="http://www.w3.org/2000/svg" viewBox="0 0 432.92 432.92"><defs><style>.cls-1{fill:#facacc;}.cls-1,.cls-10,.cls-11,.cls-12,.cls-13,.cls-14,.cls-15,.cls-16,.cls-17,.cls-18,.cls-19,.cls-2,.cls-20,.cls-21,.cls-22,.cls-23,.cls-24,.cls-25,.cls-26,.cls-27,.cls-28,.cls-29,.cls-3,.cls-30,.cls-31,.cls-32,.cls-33,.cls-34,.cls-35,.cls-36,.cls-37,.cls-38,.cls-39,.cls-4,.cls-40,.cls-41,.cls-42,.cls-43,.cls-44,.cls-45,.cls-46,.cls-47,.cls-48,.cls-49,.cls-5,.cls-50,.cls-51,.cls-52,.cls-53,.cls-54,.cls-55,.cls-56,.cls-57,.cls-58,.cls-59,.cls-6,.cls-60,.cls-61,.cls-62,.cls-7,.cls-8,.cls-9{fill-rule:evenodd;}.cls-10,.cls-12,.cls-14,.cls-16,.cls-18,.cls-2,.cls-20,.cls-22,.cls-24,.cls-26,.cls-28,.cls-30,.cls-32,.cls-34,.cls-36,.cls-38,.cls-40,.cls-42,.cls-44,.cls-46,.cls-48,.cls-5,.cls-50,.cls-52,.cls-54,.cls-56,.cls-58,.cls-60,.cls-62,.cls-7,.cls-8{fill:none;stroke-miterlimit:3.86;stroke-width:1.38px;}.cls-2{stroke:#facacc;}.cls-3{fill:#fff;}.cls-4{fill:#92d7e7;}.cls-5{stroke:#92d7e7;}.cls-6{fill:#800059;}.cls-7{stroke:#800059;}.cls-8{stroke:#fff;}.cls-9{fill:#b1c0c9;}.cls-10{stroke:#b1c0c9;}.cls-11{fill:#e2e3e4;}.cls-12{stroke:#e2e3e4;}.cls-13{fill:#f6ec29;}.cls-14{stroke:#f6ec29;}.cls-15{fill:#d5df24;}.cls-16{stroke:#d5df24;}.cls-17{fill:#78411a;}.cls-18{stroke:#78411a;}.cls-19{fill:#8ea3ae;}.cls-20{stroke:#8ea3ae;}.cls-21{fill:#c61d23;}.cls-22{stroke:#c61d23;}.cls-23{fill:#ed6a56;}.cls-24{stroke:#ed6a56;}.cls-25{fill:#c8652e;}.cls-26{stroke:#c8652e;}.cls-27{fill:#ee2924;}.cls-28{stroke:#ee2924;}.cls-29{fill:#c62d2c;}.cls-30{stroke:#c62d2c;}.cls-31{fill:#f9e3b1;}.cls-32{stroke:#f9e3b1;}.cls-33{fill:#d7861d;}.cls-34{stroke:#d7861d;}.cls-35{fill:#f4b699;}.cls-36{stroke:#f4b699;}.cls-37{fill:#f6a2b7;}.cls-38{stroke:#f6a2b7;}.cls-39{fill:#fac8d3;}.cls-40{stroke:#fac8d3;}.cls-41{fill:#8e81b4;}.cls-42{stroke:#8e81b4;}.cls-43{fill:#816f88;}.cls-44{stroke:#816f88;}.cls-45{fill:#5571b6;}.cls-46{stroke:#5571b6;}.cls-47{fill:#869acf;}.cls-48{stroke:#869acf;}.cls-49{fill:#5e62a5;}.cls-50{stroke:#5e62a5;}.cls-51{fill:#366eab;}.cls-52{stroke:#366eab;}.cls-53{fill:#f99d1c;}.cls-54{stroke:#f99d1c;}.cls-55{fill:#4c2a08;}.cls-56{stroke:#4c2a08;}.cls-57{fill:#a9006f;}.cls-58{stroke:#a9006f;}.cls-59{fill:#5a97a7;}.cls-60{stroke:#5a97a7;}.cls-61{fill:#009cc9;}.cls-62{stroke:#009cc9;}</style></defs><title>Asset 1</title><g id="Layer_2" data-name="Layer 2"><g id="Foreground"><path class="cls-1" d="M238.2,1.77a214.23,214.23,0,0,1,47.16,10.16l-20.49,60.6a150.09,150.09,0,0,0-33.2-6.93Z"/><path class="cls-2" d="M238.2,1.77a214.23,214.23,0,0,1,47.16,10.16l-20.49,60.6a150.09,150.09,0,0,0-33.2-6.93Z"/><path class="cls-3" d="M285.43,12q3.44,1.16,6.81,2.42L269.72,74.22c-1.59-.58-3.18-1.14-4.79-1.67Z"/><path class="cls-4" d="M292.3,14.4q5.24,1.95,10.31,4.18L277,77.14c-2.39-1-4.81-2-7.26-2.89Z"/><path class="cls-5" d="M292.3,14.4q5.24,1.95,10.31,4.18L277,77.14c-2.39-1-4.81-2-7.26-2.89Z"/><path class="cls-4" d="M302.68,18.6a215.91,215.91,0,0,1,48,28.93L311,97.41a150.58,150.58,0,0,0-33.9-20.24Z"/><path class="cls-5" d="M302.68,18.6a215.91,215.91,0,0,1,48,28.93L311,97.41a150.58,150.58,0,0,0-33.9-20.24Z"/><path class="cls-6" d="M389.91,88.1q2.52,3.39,4.9,6.89l-52.7,35.83c-1.12-1.63-2.27-3.25-3.45-4.84Z"/><path class="cls-7" d="M389.91,88.1q2.52,3.39,4.9,6.89l-52.7,35.83c-1.12-1.63-2.27-3.25-3.45-4.84Z"/><path class="cls-3" d="M394.85,95a215.3,215.3,0,0,1,22,41.24L357.6,160a150.58,150.58,0,0,0-15.45-29.07Z"/><path class="cls-8" d="M394.85,95a215.3,215.3,0,0,1,22,41.24L357.6,160a150.58,150.58,0,0,0-15.45-29.07Z"/><path class="cls-9" d="M416.87,136.35q3.94,9.87,6.93,20.2l-61.34,17.69Q360.39,167,357.62,160Z"/><path class="cls-10" d="M416.87,136.35q3.94,9.87,6.93,20.2l-61.34,17.69Q360.39,167,357.62,160Z"/><path class="cls-11" d="M432.23,216.46a216.51,216.51,0,0,1-6.08,51.07l-62.46-15.2a150.86,150.86,0,0,0,4.51-36.75l0-2.47,64-1.42C432.21,213.28,432.23,214.87,432.23,216.46Z"/><path class="cls-12" d="M432.23,216.46a216.51,216.51,0,0,1-6.08,51.07l-62.46-15.2a150.86,150.86,0,0,0,4.51-36.75l0-2.47,64-1.42C432.21,213.28,432.23,214.87,432.23,216.46Z"/><path class="cls-13" d="M426.13,267.59a212.81,212.81,0,0,1-11.72,34.86l-59.16-25.67a150.38,150.38,0,0,0,8.42-24.39Z"/><path class="cls-14" d="M426.13,267.59a212.81,212.81,0,0,1-11.72,34.86l-59.16-25.67a150.38,150.38,0,0,0,8.42-24.39Z"/><path class="cls-15" d="M414.38,302.51A213.52,213.52,0,0,1,403,324.9l-55.9-32.45a150.73,150.73,0,0,0,8.09-15.62Z"/><path class="cls-16" d="M414.38,302.51A213.52,213.52,0,0,1,403,324.9l-55.9-32.45a150.73,150.73,0,0,0,8.09-15.62Z"/><path class="cls-17" d="M275.38,424.08q-3,.85-6.06,1.63L253.15,362c1.42-.34,2.82-.7,4.22-1.08Z"/><path class="cls-18" d="M275.38,424.08q-3,.85-6.06,1.63L253.15,362c1.42-.34,2.82-.7,4.22-1.08Z"/><path class="cls-19" d="M191.14,430.76A214.13,214.13,0,0,1,154,423.05l19.13-63.5a150.58,150.58,0,0,0,25.69,5.51Z"/><path class="cls-20" d="M191.14,430.76A214.13,214.13,0,0,1,154,423.05l19.13-63.5a150.58,150.58,0,0,0,25.69,5.51Z"/><path class="cls-21" d="M153.93,423q-9.68-2.92-19-6.72l25-61.5q6.41,2.65,13.09,4.72Z"/><path class="cls-22" d="M153.93,423q-9.68-2.92-19-6.72l25-61.5q6.41,2.65,13.09,4.72Z"/><path class="cls-23" d="M98.76,397.33,135,341.57a150,150,0,0,0,24.94,13.21l-25,61.5A214.55,214.55,0,0,1,98.76,397.33Z"/><path class="cls-24" d="M98.76,397.33,135,341.57a150,150,0,0,0,24.94,13.21l-25,61.5A214.55,214.55,0,0,1,98.76,397.33Z"/><path class="cls-25" d="M98.7,397.29q-4-2.62-7.91-5.41l38.69-54.1c1.79,1.29,3.6,2.54,5.45,3.76Z"/><path class="cls-26" d="M98.7,397.29q-4-2.62-7.91-5.41l38.69-54.1c1.79,1.29,3.6,2.54,5.45,3.76Z"/><path class="cls-15" d="M90.73,391.84a215.57,215.57,0,0,1-22.5-18.59l45.68-48.38a152.11,152.11,0,0,0,15.52,12.88Z"/><path class="cls-16" d="M90.73,391.84a215.57,215.57,0,0,1-22.5-18.59l45.68-48.38a152.11,152.11,0,0,0,15.52,12.88Z"/><path class="cls-27" d="M68.18,373.21a216.41,216.41,0,0,1-48-67l60.5-27.68a151.09,151.09,0,0,0,33.19,46.32Z"/><path class="cls-28" d="M68.18,373.21a216.41,216.41,0,0,1-48-67l60.5-27.68a151.09,151.09,0,0,0,33.19,46.32Z"/><path class="cls-29" d="M20.14,306.11c-.93-2-1.83-4.07-2.7-6.14l61.34-25.76q.9,2.13,1.86,4.23Z"/><path class="cls-30" d="M20.14,306.11c-.93-2-1.83-4.07-2.7-6.14l61.34-25.76q.9,2.13,1.86,4.23Z"/><path class="cls-31" d="M17.42,299.91A214.1,214.1,0,0,1,5.72,263l64.87-14.34a149.2,149.2,0,0,0,8.16,25.47Z"/><path class="cls-32" d="M17.42,299.91A214.1,214.1,0,0,1,5.72,263l64.87-14.34a149.2,149.2,0,0,0,8.16,25.47Z"/><path class="cls-33" d="M.69,216.46a218.13,218.13,0,0,1,1.53-25.84l65.67,7.94a154.22,154.22,0,0,0-1,17q0,3.36.15,6.69L.85,224.87C.74,222.08.69,219.27.69,216.46Z"/><path class="cls-34" d="M.69,216.46a218.13,218.13,0,0,1,1.53-25.84l65.67,7.94a154.22,154.22,0,0,0-1,17q0,3.36.15,6.69L.85,224.87C.74,222.08.69,219.27.69,216.46Z"/><path class="cls-27" d="M2.23,190.55a214.25,214.25,0,0,1,8-37.74l63,19.48a151.37,151.37,0,0,0-5.35,26.2Z"/><path class="cls-28" d="M2.23,190.55a214.25,214.25,0,0,1,8-37.74l63,19.48a151.37,151.37,0,0,0-5.35,26.2Z"/><path class="cls-35" d="M25.11,116.66q4.41-8.44,9.53-16.43L89.9,135.61q-3.5,5.58-6.52,11.47Z"/><path class="cls-36" d="M25.11,116.66q4.41-8.44,9.53-16.43L89.9,135.61q-3.5,5.58-6.52,11.47Z"/><path class="cls-37" d="M34.68,100.17c2.51-3.93,5.16-7.77,7.91-11.52L95.36,127.5q-2.83,3.94-5.43,8.06Z"/><path class="cls-38" d="M34.68,100.17c2.51-3.93,5.16-7.77,7.91-11.52L95.36,127.5q-2.83,3.94-5.43,8.06Z"/><path class="cls-37" d="M42.64,88.6A216.76,216.76,0,0,1,80.5,48.9l41,50.65a151.5,151.5,0,0,0-26.11,27.9Z"/><path class="cls-38" d="M42.64,88.6A216.76,216.76,0,0,1,80.5,48.9l41,50.65a151.5,151.5,0,0,0-26.11,27.9Z"/><path class="cls-39" d="M80.55,48.86q8.15-6.61,16.91-12.42l35.81,54.29q-6.08,4.11-11.71,8.78Z"/><path class="cls-40" d="M80.55,48.86q8.15-6.61,16.91-12.42l35.81,54.29q-6.08,4.11-11.71,8.78Z"/><path class="cls-41" d="M97.52,36.4c2.37-1.57,4.78-3.1,7.22-4.57l33.58,55.63c-1.69,1.05-3.35,2.13-5,3.24Z"/><path class="cls-42" d="M97.52,36.4c2.37-1.57,4.78-3.1,7.22-4.57l33.58,55.63c-1.69,1.05-3.35,2.13-5,3.24Z"/><path class="cls-43" d="M104.8,31.79q3.66-2.22,7.41-4.29l31.31,56.88c-1.74,1-3.45,2-5.15,3.05Z"/><path class="cls-44" d="M104.8,31.79q3.66-2.22,7.41-4.29l31.31,56.88c-1.74,1-3.45,2-5.15,3.05Z"/><path class="cls-3" d="M112.27,27.46q8.7-4.8,17.87-8.81L156,78.07q-6.37,2.87-12.42,6.28Z"/><path class="cls-8" d="M112.27,27.46q8.7-4.8,17.87-8.81L156,78.07q-6.37,2.87-12.42,6.28Z"/><path class="cls-45" d="M130.2,18.62q5.07-2.22,10.28-4.17L163.2,75.06c-2.42.94-4.8,1.93-7.15,3Z"/><path class="cls-46" d="M130.2,18.62q5.07-2.22,10.28-4.17L163.2,75.06c-2.42.94-4.8,1.93-7.15,3Z"/><path class="cls-47" d="M140.54,14.42A215.14,215.14,0,0,1,184.88,3l9.36,63.77a149.65,149.65,0,0,0-31,8.29Z"/><path class="cls-48" d="M140.54,14.42A215.14,215.14,0,0,1,184.88,3l9.36,63.77a149.65,149.65,0,0,0-31,8.29Z"/><path class="cls-41" d="M238.13,1.76,231.61,65.6c-4.62-.43-9.31-.65-14-.65-1.86,0-3.71,0-5.55.1L210.22.78q3.1-.09,6.24-.09Q227.43.69,238.13,1.76Z"/><path class="cls-42" d="M238.13,1.76,231.61,65.6c-4.62-.43-9.31-.65-14-.65-1.86,0-3.71,0-5.55.1L210.22.78q3.1-.09,6.24-.09Q227.43.69,238.13,1.76Z"/><path class="cls-49" d="M210.15.78,212,65.06q-3.54.12-7,.42L200.08,1.3Q205.09.93,210.15.78Z"/><path class="cls-50" d="M210.15.78,212,65.06q-3.54.12-7,.42L200.08,1.3Q205.09.93,210.15.78Z"/><path class="cls-45" d="M185,3c3-.44,6.11-.82,9.19-1.14l6.58,64.05q-3.22.36-6.42.86Z"/><path class="cls-46" d="M185,3c3-.44,6.11-.82,9.19-1.14l6.58,64.05q-3.22.36-6.42.86Z"/><path class="cls-51" d="M200,1.31l4.82,64.17c-1.35.12-2.71.25-4.05.4L194.21,1.82Q197.1,1.52,200,1.31Z"/><path class="cls-52" d="M200,1.31l4.82,64.17c-1.35.12-2.71.25-4.05.4L194.21,1.82Q197.1,1.52,200,1.31Z"/><path class="cls-31" d="M25.08,116.71l58.27,30.43c-.4.78-.79,1.57-1.18,2.37L23.33,120.14C23.9,119,24.48,117.85,25.08,116.71Z"/><path class="cls-32" d="M25.08,116.71l58.27,30.43c-.4.78-.79,1.57-1.18,2.37L23.33,120.14C23.9,119,24.48,117.85,25.08,116.71Z"/><path class="cls-53" d="M10.25,152.75q1.7-5.5,3.68-10.88l61.83,22.81q-1.33,3.73-2.49,7.55Z"/><path class="cls-54" d="M10.25,152.75q1.7-5.5,3.68-10.88l61.83,22.81q-1.33,3.73-2.49,7.55Z"/><path class="cls-33" d="M75.78,164.62,14,141.8a214.8,214.8,0,0,1,9.35-21.6l58.84,29.37A148.15,148.15,0,0,0,75.78,164.62Z"/><path class="cls-34" d="M75.78,164.62,14,141.8a214.8,214.8,0,0,1,9.35-21.6l58.84,29.37A148.15,148.15,0,0,0,75.78,164.62Z"/><path class="cls-55" d="M191.21,430.77l7.68-65.71a151.48,151.48,0,0,0,18.68,1.15q7.37,0,14.56-.7l7,65.54a218.73,218.73,0,0,1-47.92-.28Z"/><path class="cls-56" d="M191.21,430.77l7.68-65.71a151.48,151.48,0,0,0,18.68,1.15q7.37,0,14.56-.7l7,65.54a218.73,218.73,0,0,1-47.92-.28Z"/><path class="cls-17" d="M269.25,425.72a215.48,215.48,0,0,1-30.05,5.33l-7-65.54a151.42,151.42,0,0,0,20.9-3.51Z"/><path class="cls-18" d="M269.25,425.72a215.48,215.48,0,0,1-30.05,5.33l-7-65.54a151.42,151.42,0,0,0,20.9-3.51Z"/><path class="cls-4" d="M350.76,47.57a217.64,217.64,0,0,1,22.12,20.26l-46.24,43.86A152.44,152.44,0,0,0,311,97.45Z"/><path class="cls-5" d="M350.76,47.57a217.64,217.64,0,0,1,22.12,20.26l-46.24,43.86A152.44,152.44,0,0,0,311,97.45Z"/><path class="cls-57" d="M389.87,88l-51.24,37.89a150.2,150.2,0,0,0-11.95-14.19l46.24-43.86A216.22,216.22,0,0,1,389.87,88Z"/><path class="cls-58" d="M389.87,88l-51.24,37.89a150.2,150.2,0,0,0-11.95-14.19l46.24-43.86A216.22,216.22,0,0,1,389.87,88Z"/><path class="cls-3" d="M5.71,263q-2-9.1-3.22-18.49l65.8-8.67q.87,6.51,2.29,12.83Z"/><path class="cls-8" d="M5.71,263q-2-9.1-3.22-18.49l65.8-8.67q.87,6.51,2.29,12.83Z"/><path class="cls-53" d="M.85,224.93l66.24-2.59q.3,6.78,1.19,13.39l-65.8,8.66Q1.23,234.79.85,224.93Z"/><path class="cls-54" d="M.85,224.93l66.24-2.59q.3,6.78,1.19,13.39l-65.8,8.66Q1.23,234.79.85,224.93Z"/><path class="cls-13" d="M403,325A217.05,217.05,0,0,1,377.53,360l-48.47-43.16a151,151,0,0,0,18.05-24.37Z"/><path class="cls-14" d="M403,325A217.05,217.05,0,0,1,377.53,360l-48.47-43.16a151,151,0,0,0,18.05-24.37Z"/><path class="cls-11" d="M275.45,424.07l-18-63.19a150.68,150.68,0,0,0,71.59-44l48.47,43.16A215.85,215.85,0,0,1,275.45,424.07Z"/><path class="cls-12" d="M275.45,424.07l-18-63.19a150.68,150.68,0,0,0,71.59-44l48.47,43.16A215.85,215.85,0,0,1,275.45,424.07Z"/><path class="cls-59" d="M366.63,193.72l63.19-9.58a216.52,216.52,0,0,1,2.35,27.49l-64,1.44A152.26,152.26,0,0,0,366.63,193.72Z"/><path class="cls-60" d="M366.63,193.72l63.19-9.58a216.52,216.52,0,0,1,2.35,27.49l-64,1.44A152.26,152.26,0,0,0,366.63,193.72Z"/><path class="cls-61" d="M423.82,156.62a214.43,214.43,0,0,1,6,27.46l-63.19,9.58a149.09,149.09,0,0,0-4.15-19.35Z"/><path class="cls-62" d="M423.82,156.62a214.43,214.43,0,0,1,6,27.46l-63.19,9.58a149.09,149.09,0,0,0-4.15-19.35Z"/></g></g></svg>